<svg xmlns="http://www.w3.org/2000/svg" viewBox="0 0 949.61 282.93"><defs><style>.cls-1{fill:#3d3d3d;}.cls-2{fill:#2a969f;}</style></defs><title>Asset 1</title><g id="Layer_2" data-name="Layer 2"><g id="Layer_1-2" data-name="Layer 1"><path class="cls-1" d="M194.34,2h-29.1V29Q136.86.35,97.32.39c-26.85,0-49.89,9.7-68.9,29.11S0,71.45,0,97.51s9.51,48.81,28.42,68.12,42.05,28.91,68.9,28.91q39.54,0,67.92-28.23a68.79,68.79,0,0,1-20.59,47.93q-19.85,19.55-47.33,19.6a72.23,72.23,0,0,1-35-9.12,70,70,0,0,1-26.26-24.1L11.37,216.1a99.75,99.75,0,0,0,36.85,34.2A101.61,101.61,0,0,0,97.32,263c24.11,0,45.28-7.93,63.41-24s28.91-36,32.54-59.88l1.07-10.68Zm-97,163.47q-28.23,0-48.22-20.38c-13.33-13.72-20-29.5-20-47.54S35.77,63.7,49.1,50C62.43,36.46,78.5,29.6,97.32,29.6S132,36.46,145.24,50s20,29.4,20,47.44v.09c0,18-6.67,33.82-20,47.54S116,165.43,97.32,165.43ZM262.16,2H233.55V195.81h28.61v-93.4q0-28.36,17.74-51.84,17.64-20,42.63-20h1.87V2h-1.87q-34.83,0-60.37,29.5Zm263.7,0H496.75V28.42Q468.39.05,428.84,0C402,0,379.05,9.6,359.94,29,341,48.32,331.52,71.74,331.52,99s9.5,50.38,28.42,69.88c19.11,19.21,42,28.91,68.9,28.91q39.54,0,67.91-28.22v26.26h29.11Zm-97,166.71q-28.08,0-48.22-20.58c-13.33-13.63-20-29.9-20-49.11s6.66-35.67,20-49.39,29.5-20.48,48.22-20.48S463.53,36,476.76,49.59s20,30.09,20,49.2V99c0,19.21-6.66,35.48-20,49.11s-29.2,20.58-47.92,20.58ZM656.21,29.11c22.93,0,41.16,9.6,54.88,28.61L734.71,41c-19.5-27.35-45.57-41-78.5-41-26.86,0-49.89,9.6-68.9,29s-28.42,42.73-28.42,70,9.51,50.38,28.42,69.88c19,19.21,42,28.91,68.9,28.91,32.93,0,59-13.62,78.5-41l-23.62-16.76c-13.72,19-32,28.62-54.88,28.62-18.72,0-34.89-6.86-48.22-20.58S588,118.19,588,99s6.76-35.67,20-49.39,29.5-20.48,48.22-20.48ZM852.69,0c-27,0-49.89,9.6-68.9,29s-28.42,42.73-28.42,70,9.41,50.38,28.42,69.88c19,19.21,42,28.91,68.9,28.91a94,94,0,0,0,50.37-14.31,96,96,0,0,0,35.87-39.1l-26.07-13.23a70.68,70.68,0,0,1-25,27.54,67.15,67.15,0,0,1-78.5-5.78,67.92,67.92,0,0,1-23.52-39.3H949.61V99c0-27.24-9.4-50.66-28.42-70S879.34,0,852.69,0ZM785.85,84.28A68.55,68.55,0,0,1,809.37,45c12.64-10.48,27-15.87,43.32-15.87,16.07,0,30.28,5.39,42.92,15.87a68.55,68.55,0,0,1,23.52,39.3Z"/><path class="cls-2" d="M233.37,264.31v-.1a18.4,18.4,0,0,1,18.87-18.72c6.83,0,10.91,2.28,14.27,5.59l-5.06,5.84c-2.79-2.53-5.64-4.09-9.26-4.09-6.1,0-10.49,5.07-10.49,11.27v.11c0,6.2,4.29,11.37,10.49,11.37,4.14,0,6.67-1.65,9.52-4.23l5.06,5.11a18.46,18.46,0,0,1-14.84,6.47A18.27,18.27,0,0,1,233.37,264.31Z"/><path class="cls-2" d="M278.77,264.31v-.1c0-10.29,8.12-18.72,19.29-18.72s19.18,8.33,19.18,18.61v.11c0,10.29-8.11,18.72-19.28,18.72S278.77,274.6,278.77,264.31Zm30.15,0v-.1c0-6.21-4.55-11.38-11-11.38S287.1,257.9,287.1,264.1v.11c0,6.2,4.55,11.37,11,11.37S308.92,270.52,308.92,264.31Z"/><path class="cls-2" d="M332.6,246.11h8.59l9.51,15.31,9.51-15.31h8.59v36.2h-7.91V258.68L350.7,274.14h-.21l-10.08-15.31v23.48H332.6Z"/><path class="cls-2" d="M385.76,246.11h8.58l9.52,15.31,9.51-15.31H422v36.2H414V258.68l-10.18,15.46h-.21l-10.09-15.31v23.48h-7.8Z"/><path class="cls-2" d="M438.34,266.79V246.11h8v20.48c0,5.89,2.94,8.94,7.8,8.94s7.81-2.95,7.81-8.68V246.11h8v20.43c0,11-6.15,16.34-15.87,16.34S438.34,277.45,438.34,266.79Z"/><path class="cls-2" d="M486.28,246.11h7.34l17,22.29V246.11h7.86v36.2h-6.77l-17.53-23v23h-7.86Z"/><path class="cls-2" d="M535.77,246.11h8v36.2h-8Z"/><path class="cls-2" d="M569.48,253.45h-11v-7.34h30v7.34h-11v28.86h-8Z"/><path class="cls-2" d="M613,268l-13.91-21.93h9.3l8.64,14.53,8.79-14.53h9L621,267.88v14.43h-8Z"/><path class="cls-2" d="M670.31,264.31v-.1a18.4,18.4,0,0,1,18.87-18.72c6.83,0,10.91,2.28,14.27,5.59l-5.06,5.84c-2.79-2.53-5.64-4.09-9.26-4.09-6.1,0-10.49,5.07-10.49,11.27v.11c0,6.2,4.29,11.37,10.49,11.37,4.14,0,6.67-1.65,9.52-4.23l5.06,5.11a18.46,18.46,0,0,1-14.84,6.47A18.27,18.27,0,0,1,670.31,264.31Z"/><path class="cls-2" d="M718.35,246.11h8v14.32H741V246.11h8v36.2h-8V267.78H726.32v14.53h-8Z"/><path class="cls-2" d="M765.35,266.79V246.11h8v20.48c0,5.89,2.94,8.94,7.81,8.94s7.8-2.95,7.8-8.68V246.11h8v20.43c0,11-6.15,16.34-15.87,16.34S765.35,277.45,765.35,266.79Z"/><path class="cls-2" d="M813.29,246.11h16.55c4.6,0,8.17,1.29,10.54,3.67a11.35,11.35,0,0,1,3.11,8.27v.11a11.25,11.25,0,0,1-7.76,11.22l8.84,12.93h-9.3l-7.76-11.59h-6.26v11.59h-8Zm16,17.58c3.88,0,6.1-2.07,6.1-5.12v-.1c0-3.41-2.38-5.17-6.25-5.17h-7.92v10.39Z"/><path class="cls-2" d="M857.34,264.31v-.1a18.4,18.4,0,0,1,18.88-18.72c6.82,0,10.91,2.28,14.27,5.59l-5.07,5.84c-2.79-2.53-5.64-4.09-9.25-4.09-6.11,0-10.5,5.07-10.5,11.27v.11c0,6.2,4.29,11.37,10.5,11.37,4.13,0,6.66-1.65,9.51-4.23l5.07,5.11a18.49,18.49,0,0,1-14.84,6.47A18.27,18.27,0,0,1,857.34,264.31Z"/><path class="cls-2" d="M905.38,246.11h8v14.32H928V246.11h8v36.2h-8V267.78H913.35v14.53h-8Z"/></g></g></svg>